<svg width="27" height="19" viewBox="0 0 27 19" fill="none" xmlns="http://www.w3.org/2000/svg">
<path fillRule="evenodd" clipRule="evenodd" d="M9.07098 1.34023C9.48166 1.37786 9.68373 1.40235 10.0861 1.45864C10.2166 1.4776 10.341 1.41139 10.3628 1.30903C10.4332 0.995512 10.4689 0.837442 10.5375 0.520718C10.5601 0.417185 10.626 0.427393 10.6818 0.542883C10.859 0.896354 10.9454 1.07484 11.1138 1.43327C11.1696 1.55022 11.3192 1.66221 11.4453 1.69196C11.8216 1.78061 11.9585 1.82057 12.414 1.96143C12.5394 2.00051 12.5597 2.06701 12.4685 2.10405C12.1885 2.21633 12.044 2.24724 11.7552 2.38402C11.6625 2.42689 11.6285 2.56018 11.6801 2.67829C11.8356 3.03905 11.9093 3.23183 12.0528 3.61767C12.1005 3.74424 12.0556 3.75795 11.9525 3.65209C11.6366 3.32982 11.4722 3.20908 11.1402 2.93873C11.0296 2.84919 10.8637 2.81682 10.7697 2.8629C10.4867 3.00581 10.3455 3.10613 10.0577 3.25603C9.96346 3.30591 9.90716 3.26333 9.93104 3.16417C10.0052 2.85823 10.0421 2.67829 10.1143 2.37265C10.1374 2.2732 10.063 2.12417 9.94788 2.04513C9.59199 1.79928 9.41128 1.68058 9.04585 1.4531C8.92722 1.37844 8.93777 1.32857 9.07098 1.34023Z" fill="#332728"/>
<path fillRule="evenodd" clipRule="evenodd" d="M5.07024 4.73813C5.56009 4.61943 5.71114 4.59144 6.17435 4.51444C6.31283 4.4917 6.45358 4.39545 6.48675 4.28988C6.58754 3.96236 6.63504 3.80021 6.73381 3.47765C6.76598 3.37354 6.83384 3.36858 6.88461 3.46511C7.04446 3.769 7.12288 3.92212 7.27719 4.23213C7.32771 4.33246 7.47801 4.42083 7.6087 4.41178C8.04426 4.38145 8.14505 4.352 8.58689 4.32692C8.71432 4.31933 8.7304 4.37737 8.63992 4.44532C8.30112 4.70051 8.19783 4.80463 7.89723 5.0149C7.80122 5.08227 7.75322 5.20797 7.80198 5.31384C7.9485 5.62968 8.02064 5.79038 8.16138 6.1176C8.20838 6.22522 8.15786 6.25497 8.04904 6.1841C7.72004 5.96828 7.55266 5.86854 7.20933 5.68772C7.09573 5.62618 6.91754 5.63581 6.81273 5.70843C6.49555 5.92862 6.38923 6.00765 5.96272 6.31796C5.84434 6.4037 5.78629 6.39029 5.83052 6.25818C5.9685 5.84725 6.01626 5.74809 6.12986 5.4197C6.16706 5.31296 6.09518 5.18551 5.97554 5.14293C5.60508 5.01082 5.41658 4.95511 5.03078 4.86383C4.90612 4.83467 4.92321 4.77692 5.07024 4.73813Z" fill="#332728"/>
<path fillRule="evenodd" clipRule="evenodd" d="M2.95414 9.04653C3.40152 9.00395 3.61666 8.99462 4.03287 8.99316C4.16808 8.99258 4.3322 8.90742 4.39956 8.8001C4.60942 8.46996 4.71272 8.30635 4.91831 7.98291C4.98466 7.87851 5.04875 7.88259 5.06232 7.99225C5.10028 8.33084 5.11938 8.50233 5.15054 8.84734C5.1606 8.95846 5.27168 9.05908 5.39258 9.07891C5.81381 9.14686 5.88117 9.15998 6.30617 9.25127C6.42078 9.27606 6.42354 9.33585 6.31371 9.37901C5.97391 9.50996 5.80024 9.58345 5.44335 9.74239C5.32823 9.79431 5.22443 9.93196 5.22619 10.0457C5.2282 10.3948 5.2282 10.571 5.22443 10.9268C5.22217 11.044 5.1621 11.0708 5.08846 10.9874C4.86377 10.7363 4.74816 10.6135 4.50638 10.3793C4.4267 10.3035 4.2563 10.2936 4.12837 10.3566C3.73881 10.5526 3.54076 10.6579 3.14038 10.8751C3.00843 10.9466 2.96244 10.9154 3.04136 10.8016C3.27711 10.4581 3.39599 10.2875 3.62797 9.95004C3.70538 9.83951 3.69407 9.69427 3.60459 9.63011C3.32411 9.43121 3.17909 9.33905 2.87146 9.17048C2.77193 9.11711 2.81063 9.06024 2.95414 9.04653Z" fill="#332728"/>
<path fillRule="evenodd" clipRule="evenodd" d="M10.1356 14.7908C9.84183 14.9853 9.68072 15.1124 9.36882 15.367C9.26753 15.4496 9.20495 15.6278 9.23058 15.7613C9.30925 16.1696 9.3467 16.3782 9.42084 16.8139C9.44522 16.9565 9.39269 17.0032 9.30448 16.9162C9.0363 16.6494 8.90184 16.5222 8.63266 16.2764C8.54369 16.195 8.38535 16.2049 8.28105 16.2991C7.96336 16.5832 7.80377 16.7302 7.48131 17.0312C7.37449 17.1318 7.33026 17.0901 7.38002 16.9434C7.53283 16.4966 7.60748 16.2799 7.75476 15.8558C7.80377 15.7167 7.76908 15.5452 7.67685 15.4735C7.39661 15.2551 7.25435 15.1504 6.96834 14.9517C6.87509 14.8879 6.89972 14.8211 7.02112 14.8024C7.39887 14.7467 7.58561 14.7251 7.95608 14.6907C8.07621 14.6791 8.21244 14.5642 8.25717 14.4358C8.39893 14.0337 8.4688 13.8374 8.60376 13.46C8.648 13.3363 8.70681 13.3355 8.73496 13.4544C8.82167 13.8216 8.86389 14.0089 8.94859 14.3935C8.97548 14.5184 9.09436 14.6184 9.21098 14.6161C9.5729 14.607 9.75411 14.598 10.1055 14.6461C10.2201 14.6598 10.2306 14.7283 10.1356 14.7908Z" fill="#332728"/>
<path fillRule="evenodd" clipRule="evenodd" d="M14.9624 15.4224C14.7043 15.5207 14.5754 15.5738 14.314 15.6829C14.2283 15.7181 14.1888 15.8473 14.2265 15.9692C14.3409 16.3382 14.3997 16.5228 14.5201 16.8932C14.5603 17.0148 14.5163 17.037 14.4223 16.9404C14.1393 16.6496 14.0003 16.5012 13.7259 16.2011C13.6344 16.1022 13.4904 16.0544 13.4027 16.0976C13.137 16.2273 13.0023 16.2959 12.7286 16.4446C12.6378 16.4936 12.5921 16.4423 12.6258 16.3309C12.7316 15.9949 12.7824 15.8333 12.8826 15.516C12.9158 15.411 12.8701 15.2451 12.7824 15.1451C12.5142 14.8356 12.3815 14.6796 12.1178 14.3696C12.0331 14.269 12.05 14.2179 12.156 14.2567C12.4843 14.3769 12.6484 14.4372 12.9754 14.56C13.0807 14.6 13.1923 14.5516 13.2235 14.455C13.3192 14.1538 13.3662 14.0082 13.4584 13.7207C13.4879 13.6288 13.5394 13.6498 13.5731 13.7691C13.6776 14.1351 13.7306 14.3188 13.8387 14.6898C13.8736 14.8094 13.989 14.9412 14.0953 14.9806C14.4248 15.1063 14.5882 15.1681 14.9187 15.2921C15.0253 15.3326 15.0451 15.39 14.9624 15.4224Z" fill="#332728"/>
<path fillRule="evenodd" clipRule="evenodd" d="M19.2939 13.9371C19.0051 14.0651 18.8706 14.1322 18.5912 14.2585C18.5012 14.299 18.4662 14.4276 18.5158 14.5454C18.6635 14.9015 18.7397 15.0794 18.8973 15.4303C18.9481 15.5443 18.9021 15.5697 18.7942 15.4805C18.4662 15.2104 18.3054 15.0751 17.9945 14.7502C17.892 14.6434 17.7379 14.5804 17.6494 14.6134C17.383 14.7117 17.25 14.7598 16.9851 14.8607C16.8974 14.8937 16.8472 14.8385 16.872 14.7385C16.9525 14.4349 16.9922 14.2853 17.0716 13.989C17.0995 13.8901 17.0394 13.7233 16.9434 13.6139C16.6436 13.2756 16.4958 13.1018 16.2065 12.7603C16.1125 12.648 16.1261 12.6014 16.2382 12.6536C16.5823 12.8178 16.7537 12.8977 17.102 13.0522C17.2149 13.1033 17.3307 13.0659 17.3574 12.9715C17.4408 12.6749 17.484 12.5279 17.5707 12.2339C17.5989 12.1382 17.6544 12.1639 17.6962 12.2873C17.8236 12.6722 17.8899 12.8653 18.0249 13.2494C18.0696 13.3742 18.1991 13.5122 18.3172 13.5585C18.6776 13.6991 18.8659 13.7233 19.2414 13.8123C19.3625 13.8391 19.3856 13.8951 19.2939 13.9371Z" fill="#332728"/>
<path fillRule="evenodd" clipRule="evenodd" d="M22.1211 10.5987C21.8457 10.8209 21.7102 10.9242 21.4428 11.1131C21.3578 11.1744 21.3191 11.3004 21.3578 11.3928C21.478 11.6751 21.5391 11.814 21.662 12.0864C21.7039 12.1776 21.6597 12.2027 21.5664 12.1438C21.2842 11.9682 21.1457 11.8723 20.8733 11.6679C20.783 11.6002 20.6441 11.5795 20.5621 11.6221C20.3146 11.753 20.1929 11.814 19.9521 11.9335C19.8725 11.9729 19.829 11.9347 19.8551 11.8493C19.9318 11.5888 19.9715 11.459 20.0524 11.1957C20.0783 11.1096 20.0308 10.9761 19.9436 10.8985C19.6804 10.6573 19.5523 10.5153 19.2972 10.256C19.2142 10.172 19.2273 10.1286 19.3281 10.1551C19.6357 10.2435 19.7915 10.2826 20.109 10.3453C20.213 10.3651 20.3206 10.3 20.3487 10.2015C20.4375 9.89525 20.4829 9.74039 20.5747 9.42104C20.6053 9.31955 20.6574 9.3245 20.6913 9.43299C20.7974 9.77072 20.8542 9.93841 20.9638 10.2726C20.9989 10.3808 21.1163 10.478 21.2244 10.4832C21.5594 10.501 21.7291 10.5024 22.0779 10.48C22.1905 10.4739 22.2091 10.5255 22.1211 10.5987Z" fill="#332728"/>
<path fillRule="evenodd" clipRule="evenodd" d="M24.4151 5.53933C24.1504 5.86043 24.0174 6.01879 23.7533 6.32443C23.6681 6.42184 23.6223 6.57525 23.6507 6.66449C23.7402 6.93368 23.7855 7.06637 23.881 7.32477C23.9114 7.40847 23.8687 7.46009 23.7842 7.43588C23.5273 7.36385 23.4024 7.3201 23.1584 7.21774C23.079 7.18391 22.945 7.22969 22.8623 7.31894C22.6092 7.58958 22.476 7.72199 22.2415 7.9623C22.1654 8.04046 22.1262 8.01684 22.1536 7.91389C22.238 7.59541 22.3049 7.42364 22.4074 7.08795C22.4418 6.97713 22.4069 6.85202 22.3302 6.80973C22.0958 6.67586 21.9811 6.60179 21.7544 6.44751C21.6813 6.39764 21.6981 6.34368 21.7921 6.32648C22.0847 6.27165 22.2322 6.23811 22.5331 6.15528C22.6303 6.12758 22.7392 6.00859 22.7746 5.89397C22.8824 5.53525 22.936 5.35472 23.0468 4.98667C23.0812 4.86651 23.1315 4.84901 23.1561 4.94788C23.2325 5.25323 23.2727 5.40255 23.3537 5.69536C23.3803 5.78927 23.4859 5.83448 23.5867 5.79452C23.9006 5.66795 24.0602 5.59854 24.3811 5.44222C24.4859 5.3938 24.5015 5.43638 24.4151 5.53933Z" fill="#332728"/>
<path fillRule="evenodd" clipRule="evenodd" d="M19.4262 2.20651C19.6976 2.23363 19.8027 2.22605 20.1206 2.2138C20.2131 2.21001 20.3089 2.11785 20.3345 2.00498C20.4132 1.65647 20.4536 1.47623 20.5351 1.10322C20.5617 0.983065 20.6084 0.976065 20.6389 1.08747C20.7326 1.43424 20.7796 1.59931 20.8744 1.92536C20.9048 2.03006 21.005 2.09539 21.0993 2.09539C21.3524 2.09539 21.5135 2.08606 21.8312 2.06768C21.9267 2.06185 21.948 2.10589 21.8656 2.18084C21.6324 2.39403 21.5117 2.46723 21.2833 2.67868C21.2051 2.751 21.1749 2.90091 21.2061 2.99948C21.3014 3.29667 21.3496 3.44249 21.4469 3.72801C21.4791 3.82221 21.4429 3.85808 21.3655 3.81054C21.1317 3.66443 21.0154 3.5886 20.7831 3.42878C20.7067 3.37628 20.5853 3.39145 20.5137 3.45999C20.297 3.67026 20.19 3.77117 19.9781 3.96103C19.909 4.02227 19.871 3.9864 19.8937 3.89162C19.9623 3.60639 19.9972 3.45474 20.0703 3.14239C20.0945 3.04031 20.0495 2.91257 19.9758 2.85133C19.7386 2.65389 19.627 2.54277 19.3993 2.32141C19.3246 2.24879 19.337 2.19746 19.4262 2.20651Z" fill="#332728"/>
<path fillRule="evenodd" clipRule="evenodd" d="M14.3954 1.08146C14.7149 1.18762 14.8735 1.24099 15.1892 1.34831C15.2932 1.38214 15.3993 1.33315 15.4262 1.23982C15.5126 0.946429 15.5556 0.796233 15.6451 0.486217C15.6737 0.387642 15.7278 0.400766 15.7624 0.519173C15.871 0.886351 15.923 1.07009 16.0271 1.43376C16.06 1.5513 16.1701 1.67495 16.2721 1.70966C16.5893 1.8164 16.7459 1.86773 17.0623 1.97185C17.1649 2.00597 17.1802 2.06575 17.096 2.10658C16.8379 2.23024 16.7122 2.28828 16.4612 2.39735C16.38 2.43264 16.3403 2.55484 16.3712 2.67033C16.4669 3.02176 16.5132 3.1947 16.6072 3.53884C16.6376 3.65112 16.5971 3.66804 16.5174 3.57267C16.2774 3.28686 16.1555 3.14308 15.9095 2.85756C15.829 2.76366 15.6971 2.7132 15.6192 2.74412C15.3809 2.83773 15.2638 2.88235 15.0296 2.96606C14.9534 2.99464 14.9109 2.94739 14.9368 2.86194C15.0155 2.60354 15.0562 2.4726 15.1361 2.2037C15.1625 2.11563 15.1158 1.96718 15.0321 1.8756C14.7709 1.593 14.6375 1.45301 14.3678 1.18091C14.2801 1.09079 14.2927 1.04792 14.3954 1.08146Z" fill="#332728"/>
<path fillRule="evenodd" clipRule="evenodd" d="M26.9017 0.861116C26.6694 1.10668 26.5473 1.23354 26.2985 1.49806C26.2173 1.5841 26.1723 1.71621 26.2002 1.78825C26.2854 2.00815 26.3296 2.11401 26.4239 2.317C26.4553 2.3832 26.4131 2.42986 26.3301 2.41849C26.0803 2.38582 25.9582 2.36191 25.7166 2.3065C25.637 2.28783 25.5035 2.34616 25.4175 2.43744C25.1582 2.71363 25.027 2.85391 24.7618 3.13243C24.6749 3.22255 24.6346 3.21176 24.6726 3.10618C24.7887 2.78683 24.8473 2.62585 24.9611 2.30621C24.9996 2.2018 24.9679 2.09331 24.8918 2.06531C24.657 1.98219 24.5429 1.93378 24.3152 1.82879C24.2421 1.79466 24.2617 1.74013 24.3607 1.70659C24.663 1.60714 24.8148 1.55348 25.1177 1.4444C25.216 1.40882 25.3256 1.29246 25.3638 1.18717C25.4781 0.8582 25.5364 0.69488 25.6488 0.366199C25.6867 0.260041 25.7327 0.246333 25.7538 0.333826C25.8179 0.600679 25.8524 0.729877 25.9257 0.979231C25.9496 1.06002 26.0469 1.09356 26.1431 1.05885C26.4397 0.944818 26.586 0.889114 26.8707 0.782081C26.963 0.747376 26.9768 0.782956 26.9017 0.861116Z" fill="#332728"/>
<path fillRule="evenodd" clipRule="evenodd" d="M16.6409 6.6997C16.8106 6.64721 16.8347 6.54688 16.6341 6.55913C16.2903 6.57896 12.2843 7.649 8.81215 9.99935C5.03436 12.5568 3.89231 13.831 3.08528 14.5566C2.8719 14.7485 2.71381 14.7517 2.67611 14.6341C2.54718 14.2355 2.4665 14.0083 2.36144 13.6347C2.32952 13.5206 2.23653 13.5335 2.19506 13.6924C2.05356 14.2337 1.98595 14.5641 1.84797 15.0526C1.80449 15.2093 1.75824 15.381 1.50741 15.5834C1.01153 15.9839 0.908485 16.062 0.599345 16.3064C0.486999 16.3951 0.428941 16.4925 0.652879 16.5394C0.868271 16.5846 0.910747 16.594 1.20154 16.6561C1.43352 16.7057 1.35686 16.888 1.32394 17.0466C1.22969 17.4998 1.18922 17.6821 1.06356 18.1478C1.02108 18.301 1.07537 18.3205 1.18294 18.1904C1.51319 17.7903 1.62026 17.6556 1.96861 17.2344C2.10005 17.0755 2.22296 16.8935 2.36069 16.9221C2.70149 16.9932 2.74221 17.0052 3.21949 17.1102C3.43111 17.1566 3.42986 17.0434 3.37356 16.8821C3.21019 16.4123 3.24035 16.4741 3.11644 16.0769C3.07673 15.9497 3.0697 15.7126 3.1936 15.5726C5.18416 13.3252 6.00803 12.5915 8.74404 10.5208C10.8869 8.89869 13.7353 7.61051 16.6409 6.6997Z" fill="#332728"/>
</svg>
