<svg width="19" height="21" viewBox="0 0 19 21" fill="none" xmlns="http://www.w3.org/2000/svg">
<path fill-rule="evenodd" clip-rule="evenodd" d="M1.69746 16.5212L1.91003 17.1511H1.5003L1.69746 16.5212ZM1.88594 16.1338H1.50687L0.950195 17.752H1.28545L1.39726 17.4285H1.98898L2.09851 17.752H2.43385L1.88594 16.1338Z" fill="#332728"/>
<path fill-rule="evenodd" clip-rule="evenodd" d="M3.57955 16.8843H4.21939V17.7575H4.02215L3.98272 17.5538C3.90604 17.6516 3.77241 17.8185 3.45688 17.8008C3.16771 17.7851 3.06694 17.665 2.99238 17.5937C2.62174 17.2278 2.6722 16.4012 3.20933 16.1641C3.27514 16.1353 3.37591 16.1064 3.51392 16.1064C3.66507 16.1064 3.87537 16.1219 4.03757 16.2837C4.21939 16.4677 4.21282 16.6116 4.21939 16.6472H3.91919C3.86223 16.4543 3.70012 16.3812 3.52925 16.3812C3.41972 16.3812 3.34086 16.41 3.24885 16.472C3.04723 16.6428 3.03627 17.0549 3.1239 17.2389C3.18751 17.3719 3.30581 17.5092 3.48982 17.5292C3.60154 17.5403 3.75927 17.5004 3.85347 17.3808C3.94109 17.2766 3.94109 17.2012 3.94328 17.1592H3.57964L3.57955 16.8843Z" fill="#332728"/>
<path fill-rule="evenodd" clip-rule="evenodd" d="M5.05762 16.4113H5.50147C5.64791 16.4113 5.7004 16.4779 5.7004 16.5934C5.72012 16.7533 5.58236 16.8356 5.50586 16.8356H5.05762V16.4113ZM4.72894 17.7523H5.05762V17.113H5.44275C5.55649 17.113 5.63527 17.1663 5.63965 17.2751C5.63527 17.3927 5.63527 17.5214 5.63965 17.6013C5.64403 17.6547 5.65718 17.7033 5.68338 17.7523H6.0354V17.6925C6.00035 17.6702 5.97406 17.6502 5.97406 17.5591C5.97187 17.477 5.96749 17.264 5.95873 17.1974C5.94129 17.0508 5.83639 17.0109 5.78171 16.9732C5.88888 16.9089 5.95907 16.8578 5.9985 16.7178C6.03793 16.5779 6.00507 16.4624 5.98316 16.3913C5.93716 16.216 5.77497 16.1404 5.61514 16.1338H4.72894V17.7523Z" fill="#332728"/>
<path fill-rule="evenodd" clip-rule="evenodd" d="M6.45793 17.7516H6.78661V16.1338H6.45793V17.7516Z" fill="#332728"/>
<path fill-rule="evenodd" clip-rule="evenodd" d="M8.61778 17.1979C8.6155 17.362 8.5235 17.5482 8.40301 17.6434C8.30881 17.7187 8.12901 17.7939 7.93169 17.8007C7.57655 17.8117 7.32842 17.5815 7.24273 17.24C7.22512 17.1646 7.21198 17.0626 7.21198 16.956C7.21198 16.8473 7.22293 16.7364 7.2493 16.6456C7.33937 16.3438 7.53046 16.1064 7.94483 16.1064C8.05883 16.1064 8.21891 16.1197 8.37453 16.2328C8.60455 16.3904 8.6155 16.599 8.61778 16.6811H8.30443C8.29559 16.5901 8.2211 16.3616 7.90102 16.3861C7.75197 16.3972 7.6357 16.5059 7.58312 16.6433C7.56121 16.701 7.53931 16.8074 7.53274 16.9228C7.52827 17.0382 7.53931 17.1623 7.58312 17.2622C7.6357 17.3797 7.70807 17.4507 7.78921 17.4884C7.83083 17.5062 7.87245 17.515 7.91854 17.515C7.96235 17.5172 8.01063 17.5106 8.05664 17.4972C8.28463 17.433 8.29129 17.2687 8.30443 17.1979H8.61778Z" fill="#332728"/>
<path fill-rule="evenodd" clip-rule="evenodd" d="M10.317 16.1338V17.2489C10.317 17.3907 10.2819 17.6034 10.0167 17.7342C9.91825 17.7786 9.80223 17.8009 9.69051 17.8009C9.57887 17.8009 9.46942 17.7808 9.38188 17.7476C9.11665 17.599 9.05093 17.4084 9.05093 17.2489V16.1338H9.37969V17.2533C9.38407 17.3552 9.41466 17.5126 9.68175 17.5126C9.94227 17.5126 9.98827 17.3552 9.98827 17.2533V16.1338H10.317Z" fill="#332728"/>
<path fill-rule="evenodd" clip-rule="evenodd" d="M11.1591 16.1338V17.4745H11.9239V17.7519H10.8303V16.1338H11.1591Z" fill="#332728"/>
<path fill-rule="evenodd" clip-rule="evenodd" d="M13.3283 16.1338V16.4113H12.8615V17.752H12.5328V16.4113H12.0484V16.1338H13.3283Z" fill="#332728"/>
<path fill-rule="evenodd" clip-rule="evenodd" d="M14.974 16.1338V17.2489C14.974 17.3907 14.9389 17.6034 14.6738 17.7342C14.5752 17.7786 14.4592 17.8009 14.3476 17.8009C14.236 17.8009 14.1265 17.7808 14.0389 17.7476C13.7737 17.599 13.708 17.4084 13.708 17.2489V16.1338H14.0366V17.2533C14.0411 17.3552 14.0718 17.5126 14.3388 17.5126C14.5993 17.5126 14.6453 17.3552 14.6453 17.2533V16.1338H14.974Z" fill="#332728"/>
<path fill-rule="evenodd" clip-rule="evenodd" d="M15.8162 16.4113H16.26C16.4064 16.4113 16.4591 16.4779 16.4591 16.5934C16.4787 16.7533 16.341 16.8356 16.2645 16.8356H15.8162V16.4113ZM15.4874 17.7523H15.8162V17.113H16.2014C16.3151 17.113 16.3939 17.1663 16.3983 17.2751C16.3939 17.3927 16.3939 17.5214 16.3983 17.6013C16.4026 17.6547 16.4157 17.7033 16.4419 17.7523H16.794V17.6925C16.759 17.6702 16.7327 17.6502 16.7327 17.5591C16.7304 17.477 16.726 17.264 16.7173 17.1974C16.6999 17.0508 16.595 17.0109 16.5402 16.9732C16.6475 16.9089 16.7177 16.8578 16.7571 16.7178C16.7965 16.5779 16.7636 16.4624 16.7417 16.3913C16.6957 16.216 16.5335 16.1404 16.3737 16.1338H15.4874V17.7523Z" fill="#332728"/>
<path fill-rule="evenodd" clip-rule="evenodd" d="M18.4105 16.1338V16.4113H17.5821V16.7812H18.3469V17.0586H17.5821V17.4749H18.4477V17.7523H17.2533V16.1338H18.4105Z" fill="#332728"/>
<path fill-rule="evenodd" clip-rule="evenodd" d="M1.48896 19.0938H1.87991C1.99416 19.0938 2.08422 19.1384 2.08422 19.2788C2.08422 19.408 2.00292 19.4637 1.86238 19.4637H1.48896V19.0938ZM1.16019 20.4347H1.8821C1.98312 20.4347 2.16098 20.4192 2.27051 20.3237C2.41299 20.1995 2.43709 20.0665 2.43709 19.9824C2.43709 19.7898 2.34061 19.648 2.24642 19.5747C2.36244 19.477 2.39749 19.3389 2.39749 19.2408C2.39749 19.174 2.3669 18.8164 1.82067 18.8164H1.16019V20.4347ZM1.48896 19.7412H1.93703C1.99854 19.7412 2.12374 19.75 2.12374 19.9315C2.12374 20.1529 1.97436 20.1573 1.87552 20.1573H1.48896V19.7412Z" fill="#332728"/>
<path fill-rule="evenodd" clip-rule="evenodd" d="M3.10077 20.4347H3.42945V18.8169H3.10077V20.4347Z" fill="#332728"/>
<path fill-rule="evenodd" clip-rule="evenodd" d="M4.83133 20.1925C4.72601 20.1925 4.62069 20.1615 4.53728 20.0839C4.43196 19.9864 4.3793 19.8112 4.37711 19.6361C4.3793 19.4611 4.43196 19.286 4.53728 19.1884C4.62069 19.1108 4.72601 19.0798 4.83133 19.0798C4.93665 19.0798 5.04197 19.1108 5.1253 19.1884C5.23062 19.286 5.28328 19.4611 5.28547 19.6361C5.28328 19.8112 5.23062 19.9864 5.1253 20.0839C5.04197 20.1615 4.93665 20.1925 4.83133 20.1925ZM5.60109 19.6361C5.60109 19.3923 5.51338 19.1486 5.36441 18.991C5.23062 18.8512 5.03531 18.7891 4.83133 18.7891C4.62726 18.7891 4.43196 18.8512 4.29816 18.991C4.14894 19.1486 4.06123 19.3923 4.06123 19.6361C4.06123 19.88 4.14894 20.1239 4.29816 20.2812C4.43196 20.4212 4.62726 20.4832 4.83133 20.4832C5.03531 20.4832 5.23062 20.4212 5.36441 20.2812C5.51338 20.1239 5.60109 19.88 5.60109 19.6361Z" fill="#332728"/>
<path fill-rule="evenodd" clip-rule="evenodd" d="M6.58555 18.8169V20.1576H7.35042V20.435H6.25687V18.8169H6.58555Z" fill="#332728"/>
<path fill-rule="evenodd" clip-rule="evenodd" d="M8.67756 20.1925C8.57224 20.1925 8.46692 20.1615 8.38359 20.0839C8.27827 19.9864 8.22561 19.8112 8.22334 19.6361C8.22561 19.4611 8.27827 19.286 8.38359 19.1884C8.46692 19.1108 8.57224 19.0798 8.67756 19.0798C8.78288 19.0798 8.8882 19.1108 8.97153 19.1884C9.07685 19.286 9.12951 19.4611 9.13178 19.6361C9.12951 19.8112 9.07685 19.9864 8.97153 20.0839C8.8882 20.1615 8.78288 20.1925 8.67756 20.1925ZM9.44732 19.6361C9.44732 19.3923 9.35969 19.1486 9.21064 18.991C9.07685 18.8512 8.88163 18.7891 8.67756 18.7891C8.47349 18.7891 8.27827 18.8512 8.14439 18.991C7.99526 19.1486 7.90746 19.3923 7.90746 19.6361C7.90746 19.88 7.99526 20.1239 8.14439 20.2812C8.27827 20.4212 8.47349 20.4832 8.67756 20.4832C8.88163 20.4832 9.07685 20.4212 9.21064 20.2812C9.35969 20.1239 9.44732 19.88 9.44732 19.6361Z" fill="#332728"/>
<path fill-rule="evenodd" clip-rule="evenodd" d="M10.845 19.567H11.4849V20.4401H11.2877L11.2483 20.2363C11.1716 20.3342 11.0379 20.5011 10.7225 20.4833C10.4333 20.4678 10.3325 20.3476 10.2578 20.2764C9.88729 19.9105 9.93767 19.0838 10.4749 18.8467C10.5406 18.8179 10.6414 18.7891 10.7794 18.7891C10.9305 18.7891 11.1408 18.8046 11.303 18.9664C11.4849 19.1503 11.4783 19.2943 11.4849 19.3298H11.1847C11.1277 19.137 10.9656 19.0638 10.7947 19.0638C10.6852 19.0638 10.6064 19.0926 10.5143 19.1546C10.3127 19.3254 10.3017 19.7375 10.3895 19.9216C10.453 20.0545 10.5714 20.1918 10.7553 20.2119C10.867 20.223 11.0248 20.1831 11.119 20.0634C11.2066 19.9591 11.2066 19.8838 11.2088 19.8417H10.8452L10.845 19.567Z" fill="#332728"/>
<path fill-rule="evenodd" clip-rule="evenodd" d="M12.1691 20.4347H12.4979V18.8169H12.1691V20.4347Z" fill="#332728"/>
<path fill-rule="evenodd" clip-rule="evenodd" d="M14.0901 20.1526C14.0332 20.1815 13.9698 20.1925 13.9063 20.1925C13.8012 20.1925 13.6962 20.1615 13.613 20.0839C13.5079 19.9864 13.4554 19.8112 13.4533 19.6361C13.4554 19.4611 13.5079 19.286 13.613 19.1884C13.6962 19.1108 13.8012 19.0798 13.9063 19.0798C14.0114 19.0798 14.1164 19.1108 14.1996 19.1884C14.3046 19.286 14.3571 19.4611 14.3593 19.6361C14.3571 19.7626 14.3309 19.8889 14.274 19.9864L14.0945 19.8134L13.926 19.9952L14.0901 20.1526ZM14.5018 20.2058C14.6114 20.0528 14.675 19.8446 14.675 19.6361C14.675 19.3923 14.5873 19.1486 14.4383 18.991C14.3046 18.8512 14.1099 18.7891 13.9063 18.7891C13.7028 18.7891 13.5079 18.8512 13.3744 18.991C13.2253 19.1486 13.1377 19.3923 13.1377 19.6361C13.1377 19.88 13.2253 20.1239 13.3744 20.2812C13.5079 20.4212 13.7028 20.4832 13.9063 20.4832C14.0551 20.4832 14.1996 20.45 14.3221 20.3745L14.5062 20.5521L14.675 20.3723L14.5018 20.2058Z" fill="#332728"/>
<path fill-rule="evenodd" clip-rule="evenodd" d="M16.5806 18.8169V19.932C16.5806 20.0738 16.5455 20.2866 16.2803 20.4174C16.1817 20.4619 16.0656 20.484 15.9541 20.484C15.8424 20.484 15.7329 20.4641 15.6454 20.4307C15.3803 20.2822 15.3145 20.0916 15.3145 19.932V18.8169H15.6433V19.9365C15.6476 20.0385 15.6783 20.1957 15.9454 20.1957C16.2059 20.1957 16.2517 20.0385 16.2517 19.9365V18.8169H16.5806Z" fill="#332728"/>
<path fill-rule="evenodd" clip-rule="evenodd" d="M18.4629 18.8164V19.0938H17.6345V19.4637H18.3992V19.7412H17.6345V20.1573H18.5001V20.4347H17.3057V18.8164H18.4629Z" fill="#332728"/>
<path fill-rule="evenodd" clip-rule="evenodd" d="M11.2986 5.51207H11.6227C12.7199 5.51207 13.6175 5.75195 13.6175 7.16396C13.6175 8.6026 12.7074 8.84239 11.5977 8.84239H11.2986V5.51207ZM11.2986 9.84106H12.0217C13.0715 9.84106 14.42 10.1347 14.42 11.5491C14.42 12.9768 13.2838 13.3238 12.1976 13.3238H11.2986V9.84106ZM10.1229 14.4335H12.3223C13.9829 14.4335 15.5957 13.6409 15.5957 11.6292C15.5957 10.4549 14.8201 9.29516 13.7083 9.08209V9.05546C14.3394 8.73586 14.7128 7.88332 14.7128 7.15064C14.7128 4.89123 13.044 4.40234 11.2735 4.40234H10.1229V14.4335Z" fill="#332728"/>
<path fill-rule="evenodd" clip-rule="evenodd" d="M8.92202 4.69575C8.78646 4.55501 8.54405 4.3886 8.1585 4.39521C7.0957 4.4134 5.57615 5.96102 4.54158 7.48679C3.68959 8.74335 2.26019 11.3151 2.26019 14.4207H3.4819C3.4819 13.5928 3.59345 12.7967 3.7821 12.0448H8.02116V14.4426H9.24287C9.24287 14.4426 9.24337 5.84125 9.24396 5.81436C9.24961 5.54611 9.26014 5.04686 8.92202 4.69575ZM4.16538 10.8262C5.24082 7.98795 7.28157 5.99705 8.02378 5.69695C8.02369 5.73106 8.02116 10.8262 8.02116 10.8262H4.16538Z" fill="#332728"/>
<path fill-rule="evenodd" clip-rule="evenodd" d="M13.6244 3.85141C13.958 2.0889 12.9469 0.456947 11.8305 0C10.9738 1.33455 11.5707 4.38452 14.2458 4.38452C15.8151 4.38452 16.8472 2.9484 16.8893 2.44793C15.313 2.07445 13.7613 3.45252 13.6244 3.85141Z" fill="#332728"/>
</svg>
