<svg width="168" height="36" viewBox="0 0 168 36" fill="none" xmlns="http://www.w3.org/2000/svg">
<g id="Group 13">
<path id="path3352" fill-rule="evenodd" clip-rule="evenodd" d="M167.231 29.7072C167.009 29.7486 166.581 29.8369 166.572 29.8383C165.962 29.9522 165.367 29.9751 164.776 29.9751C162.729 29.9751 162.003 28.9289 162.003 25.9766V16.6577H167.203V11.2836H162.003V3.70439L154.323 6.27525V11.2836H149.813V13.9607H153.675V13.9618C153.937 13.9618 154.197 14.2195 154.199 14.4794V26.5329C154.199 31.8705 155.535 35.4258 162.615 35.4258C164.1 35.4258 165.248 35.2611 166.4 35.1004C166.4 35.1004 166.897 35.0338 167.232 34.9888V29.7252L167.231 29.7072Z" fill="#E9E3DA"/>
<path id="path3354" fill-rule="evenodd" clip-rule="evenodd" d="M94.2575 10.7405C86.7268 10.7405 81.6543 15.7082 81.6543 23.1012C81.6543 30.4672 86.7276 35.4165 94.2575 35.4165C101.795 35.4165 106.87 30.4672 106.87 23.1012C106.87 15.7082 101.795 10.7405 94.2575 10.7405ZM94.2575 29.5566C89.949 29.5566 89.5191 24.5707 89.5191 23.1012C89.5191 21.6206 89.949 16.6007 94.2575 16.6007C98.5671 16.6007 98.9971 21.6206 98.9971 23.1012C98.9971 24.5707 98.5671 29.5566 94.2575 29.5566Z" fill="#E9E3DA"/>
<path id="path3356" fill-rule="evenodd" clip-rule="evenodd" d="M114.641 9.29688C117.091 9.29688 119.084 7.31137 119.084 4.87047C119.084 2.42956 117.091 0.444071 114.641 0.444071C112.19 0.444071 110.197 2.42956 110.197 4.87047C110.197 7.31137 112.19 9.29688 114.641 9.29688Z" fill="#E9E3DA"/>
<path id="path3358" fill-rule="evenodd" clip-rule="evenodd" d="M119.306 32.2198C119.043 32.2198 118.781 31.9593 118.781 31.6971V11.2841L108.04 11.2875V13.9601H110.377C110.638 13.9601 110.899 14.2189 110.901 14.4799V31.6967L110.9 31.6971C110.9 31.9593 110.639 32.2198 110.376 32.2198H108.04V34.8926H121.642V32.2198H119.306Z" fill="#E9E3DA"/>
<path id="path3360" fill-rule="evenodd" clip-rule="evenodd" d="M148.509 31.6981V20.221C148.509 15.6428 146.344 10.7508 140.086 10.7508C136.798 10.7508 134.325 12.0617 132.734 14.6495L132.515 15.0043V11.7972C132.515 11.5396 132.261 11.2921 132.004 11.2842L122.344 11.2831V13.9601H124.681C124.936 13.9601 125.191 14.2076 125.205 14.4574V34.8926H133.176L133.181 23.9855C133.181 19.2071 134.632 17.3446 137.444 17.3446C137.959 17.3402 138.933 17.4722 139.665 18.4068C140.332 19.2609 140.657 20.745 140.657 22.9428V34.8926L151.37 34.8931V32.2198H149.016C148.761 32.2106 148.509 31.9549 148.509 31.6981Z" fill="#E9E3DA"/>
<path id="path3362" fill-rule="evenodd" clip-rule="evenodd" d="M35.3138 10.7695C27.883 10.7695 23.5088 16.2367 23.5088 23.0844C23.5088 30.4774 28.6482 35.4443 36.3112 35.4443C39.4122 35.4443 42.2877 34.6878 44.5238 33.7233C44.5238 33.7233 44.5977 33.6923 44.6589 33.6663V27.8955C44.5145 27.9785 44.3336 28.073 44.3336 28.073C41.6075 29.5182 38.6709 29.8228 37.5458 29.8228C34.0983 29.8228 31.8423 28.1829 31.3823 25.8049L31.3553 25.665C31.3553 25.665 46.2316 25.665 46.4629 25.665C46.4629 25.4602 46.4629 23.9734 46.4629 23.9734C46.4629 15.5824 42.145 10.7695 35.3138 10.7695ZM31.2356 20.6535L31.2498 20.5237C31.4199 18.9301 32.3528 16.0954 35.3554 16.0954C38.2255 16.0954 39.0577 18.3815 39.2425 19.9879L39.2421 19.987C39.305 20.3975 39.0237 20.6583 38.7161 20.6535H31.2356Z" fill="#E9E3DA"/>
<path id="path3364" fill-rule="evenodd" clip-rule="evenodd" d="M67.6798 4.04505L55.6201 4.04618V6.71876H57.9558C58.2191 6.71876 58.4796 6.97867 58.4804 7.24084V31.7002C58.4783 31.9616 58.2186 32.2198 57.9558 32.2198H55.6201V34.8926H69.3363V32.2198H67.0001C66.7369 32.2198 66.4759 31.9593 66.4759 31.6971L66.475 31.6967V24.2631H69.1462C76.3425 24.2631 80.7358 19.9976 80.7358 14.2223C80.7358 8.13809 76.5974 4.04505 67.6798 4.04505ZM68.1673 18.3537H66.4745V9.90775H68.1673C71.0498 9.90775 72.7307 11.4729 72.7307 14.0923C72.7307 16.8057 71.0914 18.3537 68.1673 18.3537Z" fill="#E9E3DA"/>
<path id="path3366" fill-rule="evenodd" clip-rule="evenodd" d="M20.1065 28.1729H20.1061C20.1061 28.4323 19.8482 28.6902 19.5868 28.6902V28.6906L10.8766 28.6911V7.99796C10.8766 7.73805 11.1358 7.48041 11.3969 7.48041H13.7091V4.83382L0 4.83269V7.47927H2.31273C2.56922 7.47927 2.82276 7.72788 2.8316 7.98327V31.7422C2.82276 31.9973 2.56922 32.2462 2.31273 32.2462V32.2467H0V34.8926L22.7631 34.8918V25.869H20.1065V28.1729Z" fill="#E9E3DA"/>
</g>
</svg>
