<svg width="166" height="31" viewBox="0 0 166 31" fill="none" xmlns="http://www.w3.org/2000/svg">
<path fill-rule="evenodd" clip-rule="evenodd" d="M9.9613 6.45552V25.8197C9.9613 27.6432 10.517 28.5375 12.8699 28.5375H15.6905C18.8968 28.5375 20.3939 27.3044 21.5052 24.9697L22.531 22.7201L24.1559 23.1858L22.8734 30.5752H0V28.9625C4.01875 28.1125 4.23212 27.9844 4.23212 26.4147V6.45552C4.23212 4.84164 4.01758 4.7578 0 3.95086V2.33582H14.3224V3.94969C10.1747 4.75663 9.9613 4.84164 9.9613 6.45552ZM42.0293 15.0338C42.0293 17.6246 40.5334 20.6393 30.6131 21.1062C30.8698 25.0978 32.9226 27.7305 36.3856 27.7305C38.3094 27.7305 40.0621 26.969 41.6436 25.4786L42.5416 26.5428C40.7456 29.1744 37.796 31.0002 34.3751 31.0002C28.8605 31.0002 24.8405 27.0517 24.8405 20.8931C24.8405 14.9057 29.7151 10.1921 35.4443 10.1921C40.1477 10.1921 42.0293 13.0368 42.0293 15.0338ZM35.1875 11.891C32.0668 11.891 30.6975 15.2038 30.5697 19.4504C37.3692 18.4304 37.626 15.8395 37.626 14.3537C37.626 12.6129 36.2145 11.891 35.1875 11.891ZM50.5802 31.0002C45.6213 31.0002 43.7819 29.0056 43.7819 26.9678C43.7819 25.3936 45.3645 23.9928 47.3739 24.4166L47.9296 25.0966C46.6471 27.3044 47.5873 29.3013 50.8358 29.3013C52.8874 29.3013 54.3411 28.1963 54.3411 26.4998C54.3411 24.5028 52.674 23.6958 50.1101 22.677C46.4747 21.2331 44.3376 19.5773 44.3376 16.2645C44.3376 12.9937 47.245 10.1921 51.6482 10.1921C56.3505 10.1921 58.4466 12.3999 58.4466 14.3107C58.4466 15.8395 57.0785 17.3253 54.6834 16.8165L54.2133 16.1376C55.667 14.1837 54.9401 11.891 51.7338 11.891C49.8088 11.891 48.5263 13.0799 48.5263 14.6507C48.5263 16.5196 50.5357 17.4115 52.844 18.2184C56.436 19.4504 59.3868 21.105 59.3868 24.7578C59.388 28.4536 56.7373 31.0002 50.5802 31.0002ZM63.7068 2.33582H86.5392L86.7525 9.76711H85.2121L84.4442 7.43246C83.6751 5.09664 82.0057 4.37471 79.613 4.37471H73.6693V14.9068H79.5263C80.7678 14.9068 80.8522 14.6949 81.7068 11.0421H83.3317V21.2331H81.7068C80.8522 17.7096 80.7666 17.1996 79.5263 17.1996H73.6693V25.8209C73.6693 27.6444 74.2262 28.5386 76.5767 28.5386H79.3985C82.6048 28.5386 84.1019 27.3055 85.2121 24.9709L86.239 22.7212L87.8639 23.187L86.5825 30.5764H63.7068V28.9637C67.7256 28.1136 67.9401 27.9855 67.9401 26.4159V6.45552C67.9401 4.84164 67.7256 4.7578 63.7068 3.95086V2.33582ZM105.437 25.4786L106.335 26.5428C104.54 29.1744 101.59 31.0002 98.1687 31.0002C92.654 31.0002 88.6353 27.0517 88.6353 20.8931C88.6353 14.9057 93.0808 10.1921 98.8955 10.1921C103.47 10.1921 105.522 12.6549 105.522 14.6076C105.522 16.2215 104.497 17.8773 101.545 17.3696L101.075 16.6465C101.845 14.7357 102.187 11.8479 98.9811 11.8479C95.6892 11.8479 94.3645 15.5845 94.3645 20.1292C94.3645 24.6297 96.5028 27.7294 100.179 27.7294C102.101 27.7305 103.854 26.969 105.437 25.4786ZM120.402 28.2825V17.3253C120.402 15.0326 119.547 14.0126 117.88 14.0126C115.315 14.0126 113.133 18.0042 113.133 24.0358V30.574H107.747V4.1197C107.747 2.54774 107.619 2.4639 105.012 1.61504V0H113.347C113.132 1.69888 113.132 14.9476 113.132 15.8395H113.218C114.587 12.4849 117.067 10.1921 120.53 10.1921C123.607 10.1921 125.788 12.2729 125.788 16.3065V26.2447C125.788 28.1125 126.087 28.2825 128.951 28.9625V30.5752C126.514 30.8302 124.591 31.0002 123.394 31.0002C121.429 31.0002 120.402 30.1502 120.402 28.2825ZM138.66 29.3013C142.252 29.3013 143.234 25.1397 143.234 20.8931C143.234 16.2634 142.55 11.8898 138.66 11.8898C135.07 11.8898 134.085 16.0515 134.085 20.2992C134.084 24.929 134.853 29.3013 138.66 29.3013ZM138.233 31.0002C132.417 31.0002 128.356 27.1774 128.356 21.2319C128.356 14.6076 132.546 10.1921 139.087 10.1921C144.902 10.1921 148.962 14.0137 148.962 19.9592C148.962 26.5836 144.774 31.0002 138.233 31.0002ZM156.789 31.0002C151.83 31.0002 149.99 29.0056 149.99 26.9678C149.99 25.3936 151.572 23.9928 153.582 24.4166L154.138 25.0966C152.856 27.3044 153.796 29.3013 157.044 29.3013C159.096 29.3013 160.55 28.1963 160.55 26.4998C160.55 24.5028 158.881 23.6958 156.319 22.677C152.683 21.2331 150.546 19.5773 150.546 16.2645C150.546 12.9937 153.453 10.1921 157.857 10.1921C162.56 10.1921 164.655 12.3999 164.655 14.3107C164.655 15.8395 163.286 17.3253 160.893 16.8165L160.422 16.1376C161.877 14.1837 161.149 11.891 157.942 11.891C156.019 11.891 154.736 13.0799 154.736 14.6507C154.736 16.5196 156.745 17.4115 159.056 18.2184C162.646 19.4504 165.596 21.105 165.596 24.7578C165.595 28.4536 162.946 31.0002 156.789 31.0002Z" fill="#E9E3DA"/>
</svg>
