<svg width="169" height="31" viewBox="0 0 169 31" fill="none" xmlns="http://www.w3.org/2000/svg">
<path d="M0.431641 1.37364H7.49429V24.1189H16.9455V29.9317H0.431641V1.37364Z" fill="#E9E3DA"/>
<path d="M12.4094 10.3491C13.2988 9.35357 14.1188 8.25468 14.5976 7.0184C12.7515 6.9497 11.3496 5.71343 11.3496 3.79045C11.3496 1.79851 12.8882 0.424824 14.8365 0.424824C17.0934 0.424824 18.5294 2.31372 18.5294 4.47688C18.5294 7.25831 16.0336 10.1431 13.9483 11.7577L12.4094 10.3491Z" fill="#E9E3DA"/>
<path d="M21.7422 1.37364H39.0948V6.90902H28.7144V12.6846H37.4121V18.2205H28.7144V24.1564H39.0948V29.9317H21.7422V1.37364Z" fill="#E9E3DA"/>
<path d="M69.2674 6.42788H70.5068C72.5208 6.42788 74.8451 7.27022 74.8451 9.95758C74.8451 12.6444 72.5211 13.4471 70.5068 13.4471H69.2674V6.42788ZM62.2949 29.9317H69.2671V18.3399C70.1578 18.4205 71.0485 18.5006 71.9398 18.5006C77.4787 18.5006 82.0469 16.0541 82.0469 9.47564C82.0469 3.86047 77.8659 1.37338 72.6757 1.37338H62.2949V29.9317Z" fill="#E9E3DA"/>
<path d="M90.3254 6.66806H91.4873C93.8112 6.66806 96.0191 6.90903 96.0191 9.877C96.0191 12.1633 94.3147 13.0056 91.6808 13.0056H90.3251L90.3254 6.66806ZM83.3516 29.9317H90.3254V17.5779H92.6494L96.9772 29.9317H103.872L98.3819 16.0542C101.093 15.0113 102.991 12.484 102.991 9.47591C102.991 3.86074 98.9629 1.37364 93.7339 1.37364H83.3516V29.9317Z" fill="#E9E3DA"/>
<path d="M104.768 1.37364H122.12V6.90902H111.739V12.6846H120.435V18.2205H111.739V24.1564H122.12V29.9317H104.768V1.37364Z" fill="#E9E3DA"/>
<path d="M128.918 20.8672C129.925 23.2737 131.009 24.9586 133.682 24.9586C135.27 24.9586 136.548 23.9155 136.548 22.5518C136.548 16.7364 124.309 19.9448 124.309 8.91446C124.309 4.62303 128.453 0.812467 133.217 0.812467C137.866 0.812467 141.351 3.53999 142.552 7.10985L137.013 9.51608C136.278 7.83169 135.232 6.34757 133.217 6.34757C132.016 6.34757 130.816 7.10985 130.816 8.75434C130.816 12.8053 143.288 11.883 143.288 20.8273C143.288 26.6834 138.64 30.4937 133.217 30.4937C128.531 30.4937 124.773 27.9266 123.146 23.2739L128.918 20.8672Z" fill="#E9E3DA"/>
<path d="M149.094 20.8672C150.1 23.2737 151.185 24.9586 153.858 24.9586C155.446 24.9586 156.724 23.9155 156.724 22.5518C156.724 16.7364 144.484 19.9448 144.484 8.91446C144.484 4.62303 148.629 0.812467 153.393 0.812467C158.041 0.812467 161.527 3.53999 162.728 7.10985L157.189 9.51608C156.453 7.83169 155.407 6.34757 153.393 6.34757C152.192 6.34757 150.992 7.10985 150.992 8.75434C150.992 12.8053 163.464 11.883 163.464 20.8273C163.464 26.6834 158.816 30.4937 153.393 30.4937C148.706 30.4937 144.949 27.9266 143.322 23.2739L149.094 20.8672Z" fill="#E9E3DA"/>
<path d="M54.6525 14.4099L61.6629 1.37364H54.8205L51.409 7.97673L48.8037 1.37364H40.6441L47.3833 15.7331L39.8691 29.9317H46.7894L50.5983 22.416L53.852 29.9317H61.8956L54.6525 14.4099Z" fill="#E9E3DA"/>
</svg>
