<svg width="71" height="31" viewBox="0 0 71 55" fill="none" xmlns="http://www.w3.org/2000/svg">
<g clip-path="url(#clip0_1342_10905)">
<path d="M3.6869 7.23066H7.34933V8.80877H1.89648V0.153076H3.6869V7.23066Z" fill="#E9E3DA"/>
<path d="M15.5871 8.80875H13.6214L13.0597 7.4662H9.75984L9.19817 8.80875H7.23242L11.3864 0H11.4331L15.5871 8.80875ZM10.3215 6.0649H12.498L11.4097 3.47397L10.3215 6.0649Z" fill="#E9E3DA"/>
<path d="M24.0452 2.95585C24.0452 4.16891 23.39 5.02851 22.4656 5.45252L24.4665 8.80877H22.3836L20.5816 5.75862H19.3998V8.80877H17.6211V0.153076H20.9911C22.6411 0.153076 24.0452 1.16592 24.0452 2.95585ZM19.3998 1.70763V4.20411H20.8273C21.6699 4.20411 22.2315 3.76848 22.2315 2.95585C22.2315 2.15501 21.6699 1.70763 20.8273 1.70763L19.3998 1.70763Z" fill="#E9E3DA"/>
<path d="M30.6911 1.78995H26.9232V3.6624H30.1878V5.18157H26.9232V7.17187H30.7846V8.80877H25.1328V0.153076H30.6911V1.78995Z" fill="#E9E3DA"/>
<path d="M35.183 8.93827H35.1363L31.0293 0.153077H32.995L35.1597 5.24052L37.3359 0.153076H39.3022L35.183 8.93827Z" fill="#E9E3DA"/>
<path d="M46.4861 5.69971C46.4861 7.66645 45.3397 8.96183 43.175 8.96183C41.0103 8.96183 39.8633 7.66645 39.8633 5.69971V0.153076H41.6538V5.582C41.6538 6.61841 42.1568 7.32496 43.175 7.32496C44.1809 7.32496 44.7079 6.61841 44.7079 5.582V0.153076H46.4861V5.69971Z" fill="#E9E3DA"/>
<path d="M53.3885 1.78995H49.6206V3.6624H52.8849V5.18157H49.6206V7.17187H53.4822V8.80877H47.8301V0.153076H53.3885V1.78995Z" fill="#E9E3DA"/>
<path d="M63.3326 4.47502C63.3326 7.20709 61.5889 8.80877 58.6285 8.80877H55.8906V0.153076H58.6285C61.5661 0.153076 63.3326 1.74298 63.3326 4.47502ZM57.6812 1.80174V7.17187H58.5706C60.5128 7.17187 61.5193 6.18263 61.5193 4.4868C61.5193 2.77923 60.501 1.80174 58.5706 1.80174L57.6812 1.80174Z" fill="#E9E3DA"/>
<path d="M70.785 5.69971C70.785 7.66645 69.6385 8.96183 67.4738 8.96183C65.3092 8.96183 64.1621 7.66645 64.1621 5.69971V0.153076H65.9526V5.582C65.9526 6.61841 66.4556 7.32496 67.4738 7.32496C68.4798 7.32496 69.0068 6.61841 69.0068 5.582V0.153076H70.785V5.69971Z" fill="#E9E3DA"/>
<path d="M10.4714 49.8466C10.4714 52.9846 8.46887 54.8241 5.06868 54.8241H1.92383V44.8825H5.06868C8.44208 44.8825 10.4714 46.7084 10.4714 49.8466ZM3.98002 46.776V52.9439H5.00149C7.23246 52.9439 8.3883 51.8078 8.3883 49.86C8.3883 47.8988 7.21904 46.776 5.00149 46.776H3.98002Z" fill="#E9E3DA"/>
<path d="M17.9307 46.7627H13.6031V48.9134H17.3527V50.658H13.6031V52.9439H18.0383V54.8241H11.5469V44.8825H17.9307V46.7627Z" fill="#E9E3DA"/>
<path d="M26.9792 46.7627H22.8531V49.0486H26.2802V50.8069H22.8531V54.8241H20.7969V44.8825H26.9792V46.7627Z" fill="#E9E3DA"/>
<path d="M35.3396 48.1017C35.3396 49.4949 34.5866 50.4822 33.5249 50.9691L35.8229 54.8241H33.4309L31.3611 51.3208H30.0038V54.8241H27.9609V44.8825H31.8316C33.7265 44.8825 35.3396 46.0459 35.3396 48.1017ZM30.0038 46.6681V49.5355H31.6434C32.6111 49.5355 33.2562 49.0349 33.2562 48.1017C33.2562 47.1821 32.6111 46.6681 31.6434 46.6681H30.0038Z" fill="#E9E3DA"/>
<path d="M45.272 54.8241H43.0142L42.3689 53.2823H38.5789L37.9335 54.8241H35.6758L40.4471 44.7067H40.5007L45.272 54.8241ZM39.2242 51.6726H41.7236L40.4742 48.6969L39.2242 51.6726Z" fill="#E9E3DA"/>
<path d="M53.9685 55H53.9143L48.0816 49.2784V54.8241H46.0254V44.7067H46.079L51.9117 50.4282V44.8825H53.9685V55Z" fill="#E9E3DA"/>
<path d="M63.7001 46.1945L62.41 47.696C61.8861 47.0738 61.1335 46.5869 60.1251 46.5869C58.3112 46.5869 57.1284 47.9528 57.1284 49.8467C57.1284 51.7402 58.3112 53.1198 60.1251 53.1198C61.1465 53.1198 61.9126 52.6195 62.4371 51.9837L63.7136 53.4852C62.7324 54.567 61.5631 55 60.1251 55C57.1549 55 55.0586 52.7954 55.0586 49.8467C55.0586 46.9116 57.1549 44.7067 60.1251 44.7067C61.6846 44.7067 62.7459 45.2073 63.7001 46.1945Z" fill="#E9E3DA"/>
<path d="M70.8915 46.7627H66.564V48.9134H70.314V50.658H66.564V52.9439H70.9994V54.8241H64.5078V44.8825H70.8915V46.7627Z" fill="#E9E3DA"/>
<path fill-rule="evenodd" clip-rule="evenodd" d="M37.9815 19.1591C36.7324 19.1591 35.5869 18.7132 34.6934 17.9708V42.5448H41.2273V18.0031C40.3397 18.725 39.2114 19.1591 37.9815 19.1591Z" fill="#E9E3DA"/>
<path fill-rule="evenodd" clip-rule="evenodd" d="M60.9375 11.1953C55.7649 11.1953 52.9962 14.0613 52.9962 14.0613C52.9962 14.0613 51.907 11.4986 48.803 11.4986C46.4458 11.4986 43.8072 11.6907 42.6738 11.7831C42.9771 12.4451 43.1509 13.1794 43.1509 13.9562C43.1509 13.9736 43.1485 13.9904 43.1483 14.0078C43.2973 13.9886 43.4497 13.9771 43.604 13.9771C45.5129 13.9771 47.0717 15.4866 47.1647 17.3844C47.1665 17.3907 47.1697 17.3959 47.1697 17.404V42.5448H53.5953V17.9519C53.5953 17.9519 57.352 13.6231 60.8912 15.486C64.4304 17.3495 64.648 22.2266 64.648 22.2266V42.5448H70.8283V20.9114C70.8283 20.9114 70.0313 11.1953 60.9375 11.1953Z" fill="#E9E3DA"/>
<path fill-rule="evenodd" clip-rule="evenodd" d="M41.5248 13.9419C41.5248 15.9233 39.9284 17.5298 37.9598 17.5298C35.9905 17.5298 34.3945 15.9233 34.3945 13.9419C34.3945 11.9603 35.9905 10.3539 37.9598 10.3539C39.9284 10.3539 41.5248 11.9603 41.5248 13.9419Z" fill="#E9E3DA"/>
<path d="M28.777 11.758L21.3017 31.1121L17.85 22.775C15.6212 16.5817 13.8264 14.7554 13.8264 14.7554C10.2564 10.4678 5.16765 11.4206 5.16765 11.4206C-0.0591423 12.1154 2.90054e-05 16.403 2.90054e-05 16.403C0.295885 22.4177 9.66467 21.7428 9.66467 21.7428L18.9546 42.4664H20.9269L32.702 11.758L28.777 11.758ZM1.28207 16.8794C1.38069 14.021 4.15063 13.5347 4.15063 13.5347C7.15975 13.0099 7.73837 15.7227 7.73837 15.7227L9.29485 20.586C0.848151 21.552 1.28207 16.8794 1.28207 16.8794Z" fill="#E9E3DA"/>
</g>
</svg>
