<svg width="31" height="29" viewBox="0 0 31 29" fill="none" xmlns="http://www.w3.org/2000/svg">
<g id="Facebook_F_icon 1" clip-path="url(#clip0_688_3724)">
<path id="Blue_1_" d="M28.4231 28.5001C29.3194 28.5001 30.0342 27.8047 30.0342 26.9572V2.04266C30.0342 1.18428 29.3081 0.499756 28.4231 0.499756H2.40609C1.52108 0.499756 0.794922 1.19515 0.794922 2.04266V26.9572C0.794922 27.8156 1.52108 28.5001 2.40609 28.5001H28.4231Z" fill="#332728"/>
<path id="f" d="M20.9686 28.5003V17.6565H24.7696L25.3369 13.4298H20.9686V10.7352C20.9686 9.50738 21.3204 8.6816 23.1585 8.6816H25.4958V4.88954C25.0873 4.83522 23.7031 4.72656 22.0919 4.72656C18.7221 4.72656 16.4188 6.69322 16.4188 10.3114V13.4298H12.6064V17.6565H16.4188V28.5003H20.9686Z" fill="#E9E3DA"/>
</g>
<defs>
<clipPath id="clip0_688_3724">
<rect width="30.2945" height="29" fill="white" transform="translate(0.273438)"/>
</clipPath>
</defs>
</svg>
