<svg width="31" height="30" viewBox="0 0 31 30" fill="none" xmlns="http://www.w3.org/2000/svg">
<g id="Instagram_simple_icon 1" clip-path="url(#clip0_688_3727)">
<path id="Vector" d="M15.8522 2.8987C19.8323 2.8987 20.3037 2.91376 21.8756 2.98478C23.3289 3.05046 24.1181 3.29087 24.6434 3.49302C25.2908 3.72965 25.8765 4.10696 26.3573 4.59722C26.8524 5.07335 27.2334 5.65331 27.4723 6.29444C27.6765 6.81458 27.9193 7.59616 27.9856 9.03534C28.0573 10.5919 28.0725 11.0587 28.0725 15.0002C28.0725 18.9417 28.0573 19.4084 27.9856 20.965C27.9192 22.4042 27.6764 23.1857 27.4723 23.7059C27.2243 24.3425 26.8445 24.9207 26.3573 25.4032C25.8701 25.8857 25.2863 26.2618 24.6434 26.5074C24.1182 26.7095 23.3289 26.95 21.8756 27.0156C20.3041 27.0866 19.8327 27.1017 15.8522 27.1017C11.8717 27.1017 11.4005 27.0866 9.82879 27.0156C8.37549 26.9499 7.58629 26.7094 7.06099 26.5074C6.41355 26.2707 5.82791 25.8934 5.3471 25.4032C4.85203 24.927 4.47102 24.3471 4.23206 23.7059C4.02793 23.1858 3.7851 22.4042 3.71883 20.965C3.64712 19.4085 3.63191 18.9417 3.63191 15.0002C3.63191 11.0587 3.64712 10.592 3.71883 9.03534C3.78516 7.59616 4.02793 6.81464 4.23206 6.29444C4.47104 5.65327 4.8521 5.0733 5.34722 4.59716C5.82803 4.10691 6.41368 3.72959 7.06111 3.49296C7.58635 3.29081 8.3756 3.05034 9.82891 2.98472C11.4007 2.9137 11.8721 2.89864 15.8523 2.89864M15.8523 0.239014C11.8041 0.239014 11.2963 0.256006 9.70667 0.327842C8.12005 0.399561 7.03655 0.649053 6.08843 1.01397C5.09383 1.38462 4.19285 1.96564 3.44831 2.71653C2.68987 3.45379 2.10298 4.34602 1.72856 5.33099C1.36035 6.26995 1.10841 7.34292 1.03629 8.91411C0.963448 10.4883 0.946289 10.9911 0.946289 15C0.946289 19.0089 0.963448 19.5117 1.03629 21.0859C1.10871 22.6571 1.36065 23.7301 1.72915 24.669C2.10344 25.6539 2.69017 26.5461 3.44843 27.2834C4.19297 28.0343 5.09395 28.6153 6.08855 28.986C7.03673 29.3509 8.12023 29.6004 9.70679 29.6721C11.2967 29.744 11.8043 29.7609 15.8524 29.7609C19.9006 29.7609 20.4084 29.744 21.9981 29.6721C23.5847 29.6004 24.6682 29.3509 25.6163 28.986C26.6065 28.6067 27.5057 28.0268 28.2564 27.2834C29.0072 26.54 29.5927 25.6495 29.9757 24.669C30.3442 23.73 30.5962 22.657 30.6686 21.0859C30.7411 19.5115 30.7583 19.0088 30.7583 15C30.7583 10.9912 30.7411 10.4883 30.6686 8.91411C30.5962 7.34292 30.3442 6.26995 29.9757 5.33104C29.6014 4.34612 29.0147 3.45389 28.2564 2.71659C27.5119 1.96555 26.6108 1.3844 25.6161 1.01368C24.668 0.649053 23.5845 0.399561 21.9978 0.328135C20.4082 0.256006 19.9004 0.239014 15.8522 0.239014H15.8523Z" fill="#332728"/>
<path id="Vector_2" d="M15.8526 7.41992C14.3387 7.41992 12.8588 7.86448 11.6001 8.69738C10.3413 9.53028 9.36024 10.7141 8.7809 12.0992C8.20156 13.4842 8.04998 15.0083 8.34532 16.4787C8.64067 17.9491 9.36968 19.2997 10.4402 20.3598C11.5107 21.4198 12.8745 22.1418 14.3593 22.4342C15.8441 22.7267 17.3832 22.5766 18.7818 22.0029C20.1805 21.4292 21.376 20.4576 22.217 19.2111C23.0581 17.9646 23.507 16.4991 23.507 14.9999C23.507 12.9896 22.7006 11.0616 21.2651 9.64005C19.8296 8.21852 17.8827 7.41992 15.8526 7.41992ZM15.8526 19.9202C14.8699 19.9202 13.9093 19.6316 13.0923 19.0909C12.2752 18.5503 11.6384 17.7818 11.2623 16.8828C10.8862 15.9837 10.7879 14.9944 10.9796 14.04C11.1713 13.0855 11.6445 12.2088 12.3394 11.5207C13.0343 10.8326 13.9196 10.364 14.8834 10.1741C15.8472 9.9843 16.8462 10.0817 17.7541 10.4541C18.662 10.8266 19.438 11.4572 19.9839 12.2663C20.5299 13.0755 20.8213 14.0268 20.8213 14.9999C20.8213 16.3048 20.2978 17.5563 19.366 18.4791C18.4342 19.4018 17.1704 19.9202 15.8526 19.9202Z" fill="#332728"/>
<path id="Vector_3" d="M23.8092 8.89194C24.797 8.89194 25.5979 8.09891 25.5979 7.12065C25.5979 6.1424 24.797 5.34937 23.8092 5.34937C22.8213 5.34937 22.0205 6.1424 22.0205 7.12065C22.0205 8.09891 22.8213 8.89194 23.8092 8.89194Z" fill="#332728"/>
</g>
<defs>
<clipPath id="clip0_688_3727">
<rect width="30.2945" height="30" fill="white" transform="translate(0.705078)"/>
</clipPath>
</defs>
</svg>
